<?xml version="1.0" encoding="UTF-8"?>
<svg xmlns="http://www.w3.org/2000/svg" id="Outline" viewBox="0 0 512 512" width="512" height="512"><path d="M486.627,142.627A31.98,31.98,0,0,0,472,89.03V48a24.027,24.027,0,0,0-24-24H432a24.027,24.027,0,0,0-24,24V92.155l-30.993,24.794A23.882,23.882,0,0,0,368,135.69v24.887a95.934,95.934,0,0,0-160.2,25.535,146.933,146.933,0,0,0-31.176-26.277,72.135,72.135,0,0,0,4.821-50.805A31.988,31.988,0,1,0,141.387,62.3a71.734,71.734,0,0,0-58.753-.01,31.991,31.991,0,1,0-40.079,46.742,72.011,72.011,0,0,0,11.731,62.063c-18.581,27.427-43.5,71.281-36.379,100.637a34.564,34.564,0,0,0,18.4,23.369,35.047,35.047,0,0,0,16.248,4.171,32.606,32.606,0,0,0,13-2.743C78.35,291,88.5,277.834,96,264.329V480a8,8,0,0,0,8,8H472a8,8,0,0,0,8-8V224a8,8,0,0,0-8-8V150.97A31.791,31.791,0,0,0,486.627,142.627Zm-11.313-11.313a15.993,15.993,0,1,1,0-22.628A16.02,16.02,0,0,1,475.314,131.314ZM464,232v48H112V232ZM112,360H464v48H112Zm0-16V296H224v8a24.028,24.028,0,0,0,24,24h80a24.028,24.028,0,0,0,24-24v-8H464v48Zm128-48h96v8a8.009,8.009,0,0,1-8,8H248a8.009,8.009,0,0,1-8-8Zm36.687-80H216.4a79.634,79.634,0,0,1,17.686-42.6Zm81.226-42.6A79.634,79.634,0,0,1,375.6,216H315.313ZM391.664,216a95.311,95.311,0,0,0-5.155-24H408v24ZM387,129.443l21-16.8V176H384V135.69A7.962,7.962,0,0,1,387,129.443Zm-40.4,32.644-50.6,50.6-50.6-50.6a79.82,79.82,0,0,1,101.2,0ZM168,64a16,16,0,0,1,7.51,30.124A72.509,72.509,0,0,0,155.2,70.436,16.1,16.1,0,0,1,168,64Zm0,64a55.653,55.653,0,0,1-12.647,35.456,47.955,47.955,0,0,0-86.706,0A56,56,0,1,1,168,128Zm-63.928,25.016a7.992,7.992,0,0,0,15.856,0,32.229,32.229,0,0,1,22.739,21.853,56.064,56.064,0,0,1-61.334,0A32.228,32.228,0,0,1,104.072,153.016ZM40,80a16,16,0,0,1,28.818-9.575,72.5,72.5,0,0,0-20.327,23.7A16.063,16.063,0,0,1,40,80ZM59.2,281.84c-5.115,2.205-10.043,1.908-15.51-.937a18.7,18.7,0,0,1-10.236-12.946c-4.145-17.09,7.782-48.395,32.1-84.944q.938.792,1.9,1.558a72.017,72.017,0,0,0,89.086,0A72.758,72.758,0,0,0,167.99,173.3a131.848,131.848,0,0,1,34.078,30.855A95.545,95.545,0,0,0,200.336,216H104a8,8,0,0,0-7.691,5.819H96.3C92.34,235.772,77.949,273.756,59.2,281.84ZM112,472V424H464v48ZM424,216V48a8.009,8.009,0,0,1,8-8h16a8.009,8.009,0,0,1,8,8V89.03a31.98,31.98,0,0,0,0,61.94V216Z"/><circle cx="88" cy="120" r="8"/><circle cx="136" cy="120" r="8"/></svg>
